<?xml version="1.0" encoding="utf-8"?>
<!-- Generator: Adobe Illustrator 23.0.1, SVG Export Plug-In . SVG Version: 6.00 Build 0)  -->
<svg version="1.1" id="Layer_1" xmlns="http://www.w3.org/2000/svg" xmlns:xlink="http://www.w3.org/1999/xlink" x="0px" y="0px"
	 viewBox="0 0 81.36 81" style="enable-background:new 0 0 81.36 81;" xml:space="preserve">
<style type="text/css">
	.st0{fill:#FFFFFF;}
</style>
<path class="st0" d="M18.23,18.23v44.53h44.89V18.23H18.23z M27.35,59.77h-6.12v-6.12h6.12V59.77z M27.35,51.65h-6.12v-22.3h6.12
	V51.65z M27.35,27.35h-6.12v-6.12h6.12V27.35z M52.01,59.77H29.35v-6.12h22.66V59.77z M52.01,51.65H29.35v-22.3h22.66V51.65z
	 M52.01,27.35H29.35v-6.12h22.66V27.35z M54.01,21.23h6.12v6.12h-6.12V21.23z M54.01,29.35h6.12v22.3h-6.12V29.35z M54.01,53.65
	h6.12v6.12h-6.12V53.65z M81.36,0H0v81h81.36V0z M9.12,76H5v-4.12h4.12V76z M5,13.12h4.12v54.77H5V13.12z M9.12,9.12H5V5h4.12V9.12z
	 M13.12,76v-4.12h55.13V76H13.12z M68.24,67.88H13.12V13.12h55.13V67.88z M68.24,5v4.12H13.12V5H68.24z M76.36,76h-4.12v-4.12h4.12
	V76z M76.36,67.88h-4.12V13.12h4.12V67.88z M76.36,9.12h-4.12V5h4.12V9.12z"/>
</svg>